<?xml version="1.0" encoding="iso-8859-1"?>
<!-- Uploaded to: SVG Repo, www.svgrepo.com, Generator: SVG Repo Mixer Tools -->
<svg xmlns="http://www.w3.org/2000/svg" xmlns:xlink="http://www.w3.org/1999/xlink" version="1.1" id="Capa_1"  viewBox="0 0 400.658 400.658" xml:space="preserve" width="512" height="512">
<g>
	<path style="fill:#6BE8C7;" d="M226.037,400.658h-51.143c-9.03,0-16.35-7.32-16.35-16.35V172.276c0-9.03,7.32-16.35,16.35-16.35   h51.143c9.03,0,16.35,7.32,16.35,16.35v212.032C242.387,393.337,235.067,400.658,226.037,400.658z"/>
	<path style="fill:#6BE8C7;" d="M35.045,123.494V74.837c0-9.03,7.32-16.35,16.35-16.35h51.143c9.03,0,16.35,7.32,16.35,16.35   v309.471c0,9.03-7.32,16.35-16.35,16.35H51.395c-9.03,0-16.35-7.32-16.35-16.35V164.279V123.494z"/>
	<path style="fill:#826075;" d="M343.065,147.011l-4.824-39.936c-0.496-4.111-4.24-7.032-8.346-6.547   c-4.112,0.497-7.043,4.233-6.547,8.346l2.597,21.494L166.661,1.667c-3.222-2.603-7.945-2.103-10.547,1.12   c-2.604,3.222-2.102,7.944,1.12,10.548L317.39,142.742l-22.631,2.974c-4.106,0.54-6.998,4.307-6.459,8.414   c0.497,3.775,3.72,6.523,7.427,6.523c0.326,0,0.655-0.021,0.987-0.064l39.883-5.241   C340.673,154.811,343.557,151.093,343.065,147.011z"/>
	<path style="fill:#34C195;" d="M201.159,155.926h24.818c9.03,0,16.35,7.32,16.35,16.35v212.032c0,9.03-7.32,16.35-16.35,16.35   h-24.818V155.926z"/>
	<path style="fill:#34C195;" d="M77.786,58.35h24.818c9.03,0,16.35,7.32,16.35,16.35v309.608c0,9.03-7.32,16.35-16.35,16.35H77.786   V58.35z"/>
	<g>
		<path style="fill:#6BE8C7;" d="M349.262,400.658h-51.143c-9.03,0-16.35-7.32-16.35-16.35V244.789c0-9.03,7.32-16.35,16.35-16.35    h51.143c9.03,0,16.35,7.32,16.35,16.35v139.519C365.612,393.337,358.292,400.658,349.262,400.658z"/>
	</g>
	<path style="fill:#34C195;" d="M323.409,228.439h25.854c9.03,0,16.35,7.32,16.35,16.35v139.519c0,9.03-7.32,16.35-16.35,16.35   h-25.854V228.439z"/>
</g>















</svg>